<svg xmlns="http://www.w3.org/2000/svg" width="40" height="50" viewBox="0 0 40 50">
    <g fill="none" fill-rule="evenodd">
        <path fill="#45B058" fill-rule="nonzero" d="M30.343.014H3.107C1.41.021.037 1.53.037 3.39V46.64c0 1.859 1.373 3.368 3.07 3.374h33.679c1.697-.006 3.07-1.515 3.07-3.374V10.922L30.342.014z"/>
        <path fill="#FFF" fill-rule="nonzero" d="M30.343.014v6.94c.006 1.71 1.383 3.092 3.08 3.092h6.432"/>
        <path fill="#FFF" d="M26.985 35c-.31 0-.622 0-.622-.323l-5.904-8.064-5.905 8.064c-.31 0-.622.323-.622.323-.621 0-.932-.323-.932-1.29 0 0 0-.323.31-.645L19.217 25l-5.594-8.065c-.311 0-.311-.322-.311-.645 0-.322.621-1.29.932-1.29.622 0 .622 0 .932.323l5.594 7.419 4.973-7.097c.31-.322.31-.322.621-.322.622 0 1.244.322 1.244 1.29 0 .322-.311.322-.311.645l-5.594 7.42 5.905 8.387c.31 0 .31.322.31.645.311.645-.31 1.29-.932 1.29z"/>
    </g>
</svg>
