<svg xmlns="http://www.w3.org/2000/svg" width="40" height="50" viewBox="0 0 40 50">
    <g fill="none" fill-rule="nonzero">
        <path fill="#EBECF0" d="M29.026 2.012H6.562c-1.4.006-2.532 1.394-2.532 3.104v39.791c0 1.71 1.133 3.099 2.532 3.105H34.34c1.4-.006 2.532-1.394 2.532-3.105v-32.86L29.026 2.012z"/>
        <path fill="#FFF" d="M29.026 2.012l-.567 6.441A2.548 2.548 0 0 0 31 11l6 1"/>
        <path fill="#59A6FD" d="M.021 24.982H40v9.986a2.005 2.005 0 0 1-2 1.998H2.021a1.98 1.98 0 0 1-1.412-.587 2.001 2.001 0 0 1-.588-1.411v-9.986z"/>
        <path fill="#318AD3" d="M4 24.999v-3.996l-4 3.996h4zm32.9 0v-3.996l3.1 3.996h-3.1z"/>
        <path fill="#FFF" d="M20.498 32.868h-1.362c-.004-.196-.004-.315-.004-.357 0-.443.072-.804.221-1.089.145-.285.438-.603.877-.96.438-.358.698-.587.787-.698a.962.962 0 0 0-.149-1.326c-.234-.208-.549-.31-.945-.31-.383 0-.702.106-.957.327-.255.217-.434.548-.528.995l-1.378-.17c.038-.638.31-1.178.817-1.624.502-.446 1.166-.668 1.987-.668.864 0 1.549.226 2.055.676.51.451.766.974.766 1.573 0 .332-.094.646-.28.94-.188.293-.588.697-1.2 1.207-.32.264-.516.476-.592.638-.085.144-.12.433-.115.846zm-1.362 2.015v-1.501h1.502v1.5h-1.502z"/>
    </g>
</svg>
