<svg xmlns="http://www.w3.org/2000/svg" width="40" height="50" viewBox="0 0 40 50">
    <g fill="none" fill-rule="nonzero">
        <path fill="#F7B825" d="M30.335.014H3.105C1.41.021.038 1.53.038 3.39V46.64c0 1.859 1.372 3.368 3.069 3.374h33.67c1.697-.006 3.069-1.515 3.069-3.374V10.922L30.335.014z"/>
        <path fill="#FFF" d="M30.335.014v6.94c.006 1.71 1.383 3.092 3.08 3.092h6.43M10.806 6.832h4.443v2.96h-4.443v-2.96zm-4.442 2.96h4.442v2.96H6.364v-2.96zm4.442 2.96h4.443v2.96h-4.443v-2.96zm-4.442 2.96h4.442v2.961H6.364v-2.96zm4.442 2.961h4.443v2.96h-4.443v-2.96zm-4.442 2.96h4.442v2.961H6.364v-2.96zm0 5.921v10.362c0 .817.663 1.48 1.48 1.48h5.924c.818 0 1.48-.663 1.48-1.48V24.594h-4.442v2.96H6.364zm7.404 5.921v2.96H7.845v-2.96h5.923z"/>
    </g>
</svg>
