<svg xmlns="http://www.w3.org/2000/svg" width="40" height="50" viewBox="0 0 40 50">
    <g fill="none" fill-rule="evenodd">
        <path fill="#FF5855" fill-rule="nonzero" d="M30.335.014H3.105C1.41.021.038 1.53.038 3.39V46.64c0 1.859 1.372 3.368 3.069 3.374h33.67c1.697-.006 3.069-1.515 3.069-3.374V10.922L30.335.014z"/>
        <path fill="#FFF" fill-rule="nonzero" d="M30.335.014v6.94c.006 1.71 1.383 3.092 3.08 3.092h6.43"/>
        <path fill="#FFF" d="M28.365 29.637a7.652 7.652 0 0 1-4.4-1.755c-2.436.523-4.754 1.284-7.071 2.223-1.843 3.22-3.567 4.859-5.054 4.859-.297 0-.653-.056-.893-.234a1.723 1.723 0 0 1-1.008-1.583c0-.525.119-1.99 5.766-4.39a41.36 41.36 0 0 0 3.15-7.26c-.712-1.405-2.259-4.858-1.189-6.616.358-.644 1.07-.997 1.843-.94a1.99 1.99 0 0 1 1.545.762c.773 1.054.712 3.277-.294 6.559a17.674 17.674 0 0 0 3.686 4.684c1.247-.234 2.496-.41 3.746-.41 2.794.057 3.21 1.347 3.15 2.104-.006 1.997-1.97 1.997-2.977 1.997z"/>
    </g>
</svg>
