<svg xmlns="http://www.w3.org/2000/svg" width="40" height="50" viewBox="0 0 40 50">
    <g fill="none" fill-rule="nonzero">
        <path fill="#4D97FF" d="M30.421.014H3.115C1.413.021.037 1.53.037 3.39V46.64c0 1.859 1.376 3.368 3.078 3.374H36.88c1.701-.006 3.078-1.515 3.077-3.374V10.922L30.421.014z"/>
        <path fill="#FFF" d="M30.421.014v6.94a3.096 3.096 0 0 0 3.089 3.092h6.448M28.76 17.046a1.304 1.304 0 0 0-1.576.842L24.139 28.28l-3.034-10.382a1.094 1.094 0 0 0-.11-.196l-.064-.12a.96.96 0 0 0-.229-.24l-.108-.088a1.172 1.172 0 0 0-.316-.142h-.13a1.082 1.082 0 0 0-.327 0h-.282c-.06.02-.118.046-.174.076-.071.028-.14.061-.207.098l-.174.143a.992.992 0 0 0-.185.185 1.193 1.193 0 0 0-.087.164c-.036.056-.07.115-.098.175L15.56 28.28l-3.024-10.392a1.304 1.304 0 0 0-1.577-.831c-.317.06-.596.248-.771.521-.175.273-.23.606-.153.921l4.285 14.643c.03.066.066.128.109.186.018.05.044.099.076.142a.94.94 0 0 0 .206.273l.153.12c.083.046.17.082.26.11a.727.727 0 0 0 .131.066.173.173 0 0 0 .076 0c.087.01.174.01.261 0a.93.93 0 0 0 .25 0h.076a.814.814 0 0 0 .142-.066l.25-.11.152-.12a1.32 1.32 0 0 0 .207-.218s0-.087.076-.142a.996.996 0 0 0 .098-.186l3.001-10.381 3.045 10.381c.029.064.061.126.098.186.021.05.047.097.076.142.063.075.133.144.207.208.042.045.09.086.141.12.083.049.17.089.261.12l.142.066h.685l.13-.066c.091-.031.178-.071.261-.12a.751.751 0 0 0 .141-.12c.077-.061.147-.13.207-.208a.908.908 0 0 0 .076-.142.766.766 0 0 0 .098-.186l4.285-14.643a1.185 1.185 0 0 0-.127-.967 1.174 1.174 0 0 0-.808-.54z"/>
    </g>
</svg>
